<svg xmlns="http://www.w3.org/2000/svg" viewBox="0 0 512 512" role="img" aria-labelledby="title">
  <title>Steam Key Vault</title>
  <defs>
    <linearGradient id="bg" x1="80" x2="432" y1="48" y2="464" gradientUnits="userSpaceOnUse">
      <stop stop-color="#10243b"/>
      <stop offset=".55" stop-color="#07101d"/>
      <stop offset="1" stop-color="#0f2a32"/>
    </linearGradient>
    <linearGradient id="key" x1="132" x2="396" y1="156" y2="356" gradientUnits="userSpaceOnUse">
      <stop stop-color="#d7f0ff"/>
      <stop offset=".52" stop-color="#66c0f4"/>
      <stop offset="1" stop-color="#4ade80"/>
    </linearGradient>
    <filter id="glow" x="-30%" y="-30%" width="160%" height="160%">
      <feGaussianBlur stdDeviation="10" result="blur"/>
      <feColorMatrix in="blur" values="0 0 0 0 0.4 0 0 0 0 0.75 0 0 0 0 0.96 0 0 0 .55 0"/>
      <feBlend in="SourceGraphic"/>
    </filter>
  </defs>
  <rect width="512" height="512" rx="108" fill="url(#bg)"/>
  <path d="M112 350c50 58 130 77 205 52 58-19 99-62 121-116" fill="none" stroke="#66c0f4" stroke-opacity=".55" stroke-width="16" stroke-linecap="round"/>
  <path d="M130 224c51-86 168-115 253-52" fill="none" stroke="#4ade80" stroke-width="16" stroke-linecap="round"/>
  <path d="M130 244a70 70 0 1 1 124 44h136v45h-40v55h-46v-55h-51a70 70 0 0 1-123-89Zm70 27a27 27 0 1 0 0-54 27 27 0 0 0 0 54Z" fill="url(#key)" filter="url(#glow)"/>
  <circle cx="377" cy="161" r="27" fill="#4ade80"/>
  <circle cx="425" cy="222" r="19" fill="#66c0f4"/>
  <path d="M391 184l25 27" fill="none" stroke="#b9e8ff" stroke-width="9" stroke-linecap="round"/>
  <path d="M126 104h260a22 22 0 0 1 22 22v88" fill="none" stroke="#ffffff" stroke-opacity=".12" stroke-width="10" stroke-linecap="round"/>
</svg>
